ffmpeg started on 2025-06-23 at 20:06:35
Report written to "D:\Convert\FFMetrics\reports\psnr_report-6.txt"
Log level: 32
Command line:
ffmpeg -hide_banner -nostdin -i "G:\\\xc0\xed\xe8\xec\xe5\\[\xd2\xee\xef-4]\\\xcc\xee\xe6\xe5\xf2, \xff \xe2\xf1\xf2\xf0\xe5\xf7\xf3 \xf2\xe5\xe1\xff \xe2 \xef\xee\xe4\xe7\xe5\xec\xe5\xeb\xfc\xe5\\\xd2\xc2-1\\DanMachi_[07]_[AniLibria_TV]_[HDTVRip_720p]_HEVC.mkv" -i "G:\\\xc0\xed\xe8\xec\xe5\\[\xd2\xee\xef-4]\\\xcc\xee\xe6\xe5\xf2, \xff \xe2\xf1\xf2\xf0\xe5\xf7\xf3 \xf2\xe5\xe1\xff \xe2 \xef\xee\xe4\xe7\xe5\xec\xe5\xeb\xfc\xe5\\\xd2\xc2-1\\DanMachi_[07]_[AniLibria_TV]_[HDTVRip_720p].mkv" -lavfi "[0:v]settb=AVTB,setpts=PTS-STARTPTS,format=pix_fmts=yuv420p10,fps=24000/1001,scale=1280:720:flags=bicubic[main];[1:v]settb=AVTB,setpts=PTS-STARTPTS,format=pix_fmts=yuv420p,fps=24000/1001,scale=1280:720:flags=bicubic[ref];[main][ref]psnr=eof_action=endall:stats_file='D\\:/Convert/FFMetrics/logs/psnr_logfile-6.txt'" -f null -
Input #0, matroska,webm, from 'G:\Аниме\[Топ-4]\Может, я встречу тебя в подземелье\ТВ-1\DanMachi_[07]_[AniLibria_TV]_[HDTVRip_720p]_HEVC.mkv':
  Metadata:
    ENCODER         : Lavf61.7.100
  Duration: 00:23:41.01, start: -0.021000, bitrate: 731 kb/s
  Stream #0:0(jpn): Video: hevc (Main 10), yuv420p10le(tv, bt709, progressive), 1280x720 [SAR 1:1 DAR 16:9], 23.98 fps, 23.98 tbr, 1k tbn (default)
      Metadata:
        title           : [Horrible-Subs]
        ENCODER         : Lavc61.19.100 libx265
        BPS             : 533704
        DURATION        : 00:23:40.962708375
        NUMBER_OF_FRAMES: 34069
        NUMBER_OF_BYTES : 94796680
        _STATISTICS_WRITING_APP: mkvpropedit v66.0.0 ('Josie') 64-bit
        _STATISTICS_WRITING_DATE_UTC: 2025-06-23 08:25:19
        _STATISTICS_TAGS: BPS DURATION NUMBER_OF_FRAMES NUMBER_OF_BYTES
  Stream #0:1(rus): Audio: aac (LC), 48000 Hz, stereo, fltp (default)
      Metadata:
        title           : Metacarmex & Say
        ENCODER         : Lavc61.19.100 aac
        BPS             : 193790
        DURATION        : 00:23:40.991000000
        NUMBER_OF_FRAMES: 66610
        NUMBER_OF_BYTES : 34421771
        _STATISTICS_WRITING_APP: mkvpropedit v66.0.0 ('Josie') 64-bit
        _STATISTICS_WRITING_DATE_UTC: 2025-06-23 08:25:19
        _STATISTICS_TAGS: BPS DURATION NUMBER_OF_FRAMES NUMBER_OF_BYTES
  Stream #0:2(rus): Subtitle: ass (ssa) (default)
      Metadata:
        title           : Надписи
        BPS             : 2
        DURATION        : 00:23:01.220000000
        NUMBER_OF_FRAMES: 4
        NUMBER_OF_BYTES : 406
        _STATISTICS_WRITING_APP: mkvpropedit v66.0.0 ('Josie') 64-bit
        _STATISTICS_WRITING_DATE_UTC: 2025-06-23 08:25:19
        _STATISTICS_TAGS: BPS DURATION NUMBER_OF_FRAMES NUMBER_OF_BYTES
  Stream #0:3(rus): Subtitle: ass (ssa)
      Metadata:
        title           : Полные
        BPS             : 110
        DURATION        : 00:23:36.460000000
        NUMBER_OF_FRAMES: 276
        NUMBER_OF_BYTES : 19522
        _STATISTICS_WRITING_APP: mkvpropedit v66.0.0 ('Josie') 64-bit
        _STATISTICS_WRITING_DATE_UTC: 2025-06-23 08:25:19
        _STATISTICS_TAGS: BPS DURATION NUMBER_OF_FRAMES NUMBER_OF_BYTES
Input #1, matroska,webm, from 'G:\Аниме\[Топ-4]\Может, я встречу тебя в подземелье\ТВ-1\DanMachi_[07]_[AniLibria_TV]_[HDTVRip_720p].mkv':
  Metadata:
    encoder         : libebml v1.4.2 + libmatroska v1.6.4
    creation_time   : 2025-01-14T16:49:34.000000Z
  Duration: 00:23:40.99, start: 0.000000, bitrate: 1969 kb/s
  Stream #1:0(jpn): Video: h264 (High), yuv420p(progressive), 1280x720, SAR 1:1 DAR 16:9, 23.98 fps, 23.98 tbr, 1k tbn (default)
      Metadata:
        title           : [Horrible-Subs]
        BPS             : 1771598
        DURATION        : 00:23:40.963000000
        NUMBER_OF_FRAMES: 34069
        NUMBER_OF_BYTES : 314671925
        _STATISTICS_WRITING_APP: mkvmerge v66.0.0 ('Josie') 64-bit
        _STATISTICS_WRITING_DATE_UTC: 2025-01-14 16:49:34
        _STATISTICS_TAGS: BPS DURATION NUMBER_OF_FRAMES NUMBER_OF_BYTES
  Stream #1:1(rus): Audio: aac (LC), 48000 Hz, stereo, fltp (default)
      Metadata:
        title           : Metacarmex & Say
        BPS             : 192091
        DURATION        : 00:23:40.992000000
        NUMBER_OF_FRAMES: 66609
        NUMBER_OF_BYTES : 34120010
        _STATISTICS_WRITING_APP: mkvmerge v66.0.0 ('Josie') 64-bit
        _STATISTICS_WRITING_DATE_UTC: 2025-01-14 16:49:34
        _STATISTICS_TAGS: BPS DURATION NUMBER_OF_FRAMES NUMBER_OF_BYTES
  Stream #1:2(rus): Subtitle: ass (ssa) (default)
      Metadata:
        title           : Надписи
        BPS             : 2
        DURATION        : 00:23:01.220000000
        NUMBER_OF_FRAMES: 4
        NUMBER_OF_BYTES : 406
        _STATISTICS_WRITING_APP: mkvmerge v66.0.0 ('Josie') 64-bit
        _STATISTICS_WRITING_DATE_UTC: 2025-01-14 16:49:34
        _STATISTICS_TAGS: BPS DURATION NUMBER_OF_FRAMES NUMBER_OF_BYTES
  Stream #1:3(rus): Subtitle: ass (ssa)
      Metadata:
        title           : Полные
        BPS             : 110
        DURATION        : 00:23:36.460000000
        NUMBER_OF_FRAMES: 276
        NUMBER_OF_BYTES : 19522
        _STATISTICS_WRITING_APP: mkvmerge v66.0.0 ('Josie') 64-bit
        _STATISTICS_WRITING_DATE_UTC: 2025-01-14 16:49:34
        _STATISTICS_TAGS: BPS DURATION NUMBER_OF_FRAMES NUMBER_OF_BYTES
  Stream #1:4: Attachment: ttf
      Metadata:
        filename        : ChinaCyr.ttf
        mimetype        : application/x-truetype-font
  Stream #1:5: Attachment: ttf
      Metadata:
        filename        : TkhO4vNj.ttf
        mimetype        : application/x-truetype-font
  Stream #1:6: Attachment: ttf
      Metadata:
        filename        : bonzai.ttf
        mimetype        : application/x-truetype-font
  Stream #1:7: Attachment: ttf
      Metadata:
        filename        : OpenSans-Semibold.ttf
        mimetype        : application/x-truetype-font
Stream mapping:
  Stream #0:0 (hevc) -> settb:default
  Stream #1:0 (h264) -> settb:default
  psnr:default -> Stream #0:0 (wrapped_avframe)
  Stream #0:1 -> #0:1 (aac (native) -> pcm_s16le (native))
[swscaler @ 0000024b49b3f440] No accelerated colorspace conversion found from yuv420p to bgr48le.
[swscaler @ 0000024b49bbed80] No accelerated colorspace conversion found from yuv420p to bgr48le.
[swscaler @ 0000024b49d0ca40] No accelerated colorspace conversion found from yuv420p to bgr48le.
[swscaler @ 0000024b49d70700] No accelerated colorspace conversion found from yuv420p to bgr48le.
[swscaler @ 0000024b49dfff00] No accelerated colorspace conversion found from yuv420p to bgr48le.
[swscaler @ 0000024b46f5a700] No accelerated colorspace conversion found from yuv420p to bgr48le.
[swscaler @ 0000024b49ffe700] No accelerated colorspace conversion found from yuv420p to bgr48le.
[swscaler @ 0000024b4a0b55c0] No accelerated colorspace conversion found from yuv420p to bgr48le.
[swscaler @ 0000024b4a1c47c0] No accelerated colorspace conversion found from yuv420p to bgr48le.
[swscaler @ 0000024b4a3214c0] No accelerated colorspace conversion found from yuv420p to bgr48le.
[swscaler @ 0000024b4a3d6b80] No accelerated colorspace conversion found from yuv420p to bgr48le.
[swscaler @ 0000024b4a51d7c0] No accelerated colorspace conversion found from yuv420p to bgr48le.
[swscaler @ 0000024b4a663040] No accelerated colorspace conversion found from yuv420p to bgr48le.
[swscaler @ 0000024b4ed347c0] No accelerated colorspace conversion found from yuv420p to bgr48le.
[swscaler @ 0000024b4edd6040] No accelerated colorspace conversion found from yuv420p to bgr48le.
[swscaler @ 0000024b4ee41040] No accelerated colorspace conversion found from yuv420p to bgr48le.
Output #0, null, to 'pipe:':
  Metadata:
    encoder         : Lavf61.7.100
  Stream #0:0: Video: wrapped_avframe, yuv420p10le(tv, bt709, progressive), 1280x720 [SAR 1:1 DAR 16:9], q=2-31, 200 kb/s, 23.98 fps, 23.98 tbn
      Metadata:
        encoder         : Lavc61.19.100 wrapped_avframe
  Stream #0:1(rus): Audio: pcm_s16le, 48000 Hz, stereo, s16, 1536 kb/s (default)
      Metadata:
        title           : Metacarmex & Say
        _STATISTICS_TAGS: BPS DURATION NUMBER_OF_FRAMES NUMBER_OF_BYTES
        BPS             : 193790
        DURATION        : 00:23:40.991000000
        NUMBER_OF_FRAMES: 66610
        NUMBER_OF_BYTES : 34421771
        _STATISTICS_WRITING_APP: mkvpropedit v66.0.0 ('Josie') 64-bit
        _STATISTICS_WRITING_DATE_UTC: 2025-06-23 08:25:19
        encoder         : Lavc61.19.100 pcm_s16le
frame=   84 fps=0.0 q=-0.0 size=N/A time=00:00:03.50 bitrate=N/A speed= 6.8x    frame=  180 fps=175 q=-0.0 size=N/A time=00:00:07.50 bitrate=N/A speed=7.31x    frame=  280 fps=180 q=-0.0 size=N/A time=00:00:11.67 bitrate=N/A speed=7.51x    frame=  380 fps=184 q=-0.0 size=N/A time=00:00:15.84 bitrate=N/A speed=7.67x    frame=  478 fps=185 q=-0.0 size=N/A time=00:00:19.93 bitrate=N/A speed=7.74x    frame=  574 fps=186 q=-0.0 size=N/A time=00:00:23.94 bitrate=N/A speed=7.75x    frame=  675 fps=187 q=-0.0 size=N/A time=00:00:28.15 bitrate=N/A speed=7.79x    frame=  777 fps=188 q=-0.0 size=N/A time=00:00:32.40 bitrate=N/A speed=7.85x    frame=  868 fps=187 q=-0.0 size=N/A time=00:00:36.20 bitrate=N/A speed= 7.8x    frame=  979 fps=190 q=-0.0 size=N/A time=00:00:40.83 bitrate=N/A speed=7.91x    frame= 1079 fps=190 q=-0.0 size=N/A time=00:00:45.00 bitrate=N/A speed=7.93x    frame= 1177 fps=190 q=-0.0 size=N/A time=00:00:49.09 bitrate=N/A speed=7.93x    frame= 1275 fps=190 q=-0.0 size=N/A time=00:00:53.17 bitrate=N/A speed=7.94x    frame= 1373 fps=190 q=-0.0 size=N/A time=00:00:57.26 bitrate=N/A speed=7.92x    frame= 1465 fps=189 q=-0.0 size=N/A time=00:01:01.10 bitrate=N/A speed= 7.9x    frame= 1564 fps=190 q=-0.0 size=N/A time=00:01:05.23 bitrate=N/A speed=7.91x    frame= 1663 fps=190 q=-0.0 size=N/A time=00:01:09.36 bitrate=N/A speed=7.92x    frame= 1763 fps=190 q=-0.0 size=N/A time=00:01:13.53 bitrate=N/A speed=7.92x    frame= 1857 fps=189 q=-0.0 size=N/A time=00:01:17.45 bitrate=N/A speed= 7.9x    frame= 1957 fps=190 q=-0.0 size=N/A time=00:01:21.62 bitrate=N/A speed=7.92x    frame= 2048 fps=189 q=-0.0 size=N/A time=00:01:25.41 bitrate=N/A speed=7.89x    frame= 2155 fps=190 q=-0.0 size=N/A time=00:01:29.88 bitrate=N/A speed=7.92x    frame= 2254 fps=190 q=-0.0 size=N/A time=00:01:34.01 bitrate=N/A speed=7.93x    frame= 2346 fps=190 q=-0.0 size=N/A time=00:01:37.84 bitrate=N/A speed=7.91x    frame= 2445 fps=190 q=-0.0 size=N/A time=00:01:41.97 bitrate=N/A speed=7.91x    frame= 2546 fps=190 q=-0.0 size=N/A time=00:01:46.18 bitrate=N/A speed=7.92x    frame= 2644 fps=190 q=-0.0 size=N/A time=00:01:50.27 bitrate=N/A speed=7.92x    frame= 2747 fps=190 q=-0.0 size=N/A time=00:01:54.57 bitrate=N/A speed=7.94x    frame= 2849 fps=190 q=-0.0 size=N/A time=00:01:58.82 bitrate=N/A speed=7.94x    frame= 2948 fps=191 q=-0.0 size=N/A time=00:02:02.95 bitrate=N/A speed=7.95x    frame= 3045 fps=190 q=-0.0 size=N/A time=00:02:07.00 bitrate=N/A speed=7.95x    frame= 3143 fps=191 q=-0.0 size=N/A time=00:02:11.08 bitrate=N/A speed=7.95x    frame= 3242 fps=190 q=-0.0 size=N/A time=00:02:15.21 bitrate=N/A speed=7.94x    frame= 3343 fps=191 q=-0.0 size=N/A time=00:02:19.43 bitrate=N/A speed=7.95x    frame= 3444 fps=191 q=-0.0 size=N/A time=00:02:23.64 bitrate=N/A speed=7.96x    frame= 3538 fps=191 q=-0.0 size=N/A time=00:02:27.56 bitrate=N/A speed=7.95x    frame= 3648 fps=191 q=-0.0 size=N/A time=00:02:32.15 bitrate=N/A speed=7.97x    frame= 3745 fps=191 q=-0.0 size=N/A time=00:02:36.19 bitrate=N/A speed=7.97x    frame= 3849 fps=191 q=-0.0 size=N/A time=00:02:40.53 bitrate=N/A speed=7.98x    frame= 3943 fps=191 q=-0.0 size=N/A time=00:02:44.45 bitrate=N/A speed=7.98x    frame= 4054 fps=192 q=-0.0 size=N/A time=00:02:49.08 bitrate=N/A speed=   8x    frame= 4142 fps=191 q=-0.0 size=N/A time=00:02:52.75 bitrate=N/A speed=7.98x    frame= 4242 fps=191 q=-0.0 size=N/A time=00:02:56.92 bitrate=N/A speed=7.98x    frame= 4353 fps=192 q=-0.0 size=N/A time=00:03:01.55 bitrate=N/A speed=   8x    frame= 4444 fps=191 q=-0.0 size=N/A time=00:03:05.35 bitrate=N/A speed=7.99x    frame= 4545 fps=192 q=-0.0 size=N/A time=00:03:09.56 bitrate=N/A speed=7.99x    frame= 4649 fps=192 q=-0.0 size=N/A time=00:03:13.90 bitrate=N/A speed=   8x    frame= 4745 fps=192 q=-0.0 size=N/A time=00:03:17.90 bitrate=N/A speed=7.99x    frame= 4849 fps=192 q=-0.0 size=N/A time=00:03:22.24 bitrate=N/A speed=   8x    frame= 4956 fps=192 q=-0.0 size=N/A time=00:03:26.70 bitrate=N/A speed=8.02x    frame= 5050 fps=192 q=-0.0 size=N/A time=00:03:30.62 bitrate=N/A speed=8.01x    frame= 5160 fps=192 q=-0.0 size=N/A time=00:03:35.21 bitrate=N/A speed=8.02x    frame= 5257 fps=192 q=-0.0 size=N/A time=00:03:39.26 bitrate=N/A speed=8.02x    frame= 5356 fps=192 q=-0.0 size=N/A time=00:03:43.38 bitrate=N/A speed=8.02x    frame= 5454 fps=192 q=-0.0 size=N/A time=00:03:47.47 bitrate=N/A speed=8.02x    frame= 5558 fps=192 q=-0.0 size=N/A time=00:03:51.81 bitrate=N/A speed=8.03x    frame= 5659 fps=193 q=-0.0 size=N/A time=00:03:56.02 bitrate=N/A speed=8.03x    frame= 5746 fps=192 q=-0.0 size=N/A time=00:03:59.65 bitrate=N/A speed=8.01x    frame= 5860 fps=193 q=-0.0 size=N/A time=00:04:04.41 bitrate=N/A speed=8.03x    frame= 5960 fps=193 q=-0.0 size=N/A time=00:04:08.58 bitrate=N/A speed=8.03x    frame= 6061 fps=193 q=-0.0 size=N/A time=00:04:12.79 bitrate=N/A speed=8.04x    frame= 6160 fps=193 q=-0.0 size=N/A time=00:04:16.92 bitrate=N/A speed=8.04x    frame= 6265 fps=193 q=-0.0 size=N/A time=00:04:21.30 bitrate=N/A speed=8.04x    frame= 6364 fps=193 q=-0.0 size=N/A time=00:04:25.43 bitrate=N/A speed=8.04x    frame= 6465 fps=193 q=-0.0 size=N/A time=00:04:29.64 bitrate=N/A speed=8.05x    frame= 6561 fps=193 q=-0.0 size=N/A time=00:04:33.64 bitrate=N/A speed=8.04x    frame= 6668 fps=193 q=-0.0 size=N/A time=00:04:38.11 bitrate=N/A speed=8.05x    frame= 6763 fps=193 q=-0.0 size=N/A time=00:04:42.07 bitrate=N/A speed=8.04x    frame= 6871 fps=193 q=-0.0 size=N/A time=00:04:46.57 bitrate=N/A speed=8.06x    frame= 6969 fps=193 q=-0.0 size=N/A time=00:04:50.66 bitrate=N/A speed=8.05x    frame= 7078 fps=193 q=-0.0 size=N/A time=00:04:55.21 bitrate=N/A speed=8.06x    frame= 7176 fps=193 q=-0.0 size=N/A time=00:04:59.29 bitrate=N/A speed=8.06x    frame= 7278 fps=193 q=-0.0 size=N/A time=00:05:03.55 bitrate=N/A speed=8.07x    frame= 7382 fps=193 q=-0.0 size=N/A time=00:05:07.89 bitrate=N/A speed=8.07x    frame= 7482 fps=193 q=-0.0 size=N/A time=00:05:12.06 bitrate=N/A speed=8.07x    frame= 7580 fps=193 q=-0.0 size=N/A time=00:05:16.14 bitrate=N/A speed=8.07x    frame= 7672 fps=193 q=-0.0 size=N/A time=00:05:19.98 bitrate=N/A speed=8.06x    frame= 7781 fps=193 q=-0.0 size=N/A time=00:05:24.53 bitrate=N/A speed=8.07x    frame= 7883 fps=194 q=-0.0 size=N/A time=00:05:28.78 bitrate=N/A speed=8.07x    frame= 7984 fps=194 q=-0.0 size=N/A time=00:05:32.99 bitrate=N/A speed=8.07x    frame= 8074 fps=193 q=-0.0 size=N/A time=00:05:36.75 bitrate=N/A speed=8.06x    frame= 8187 fps=194 q=-0.0 size=N/A time=00:05:41.46 bitrate=N/A speed=8.07x    frame= 8283 fps=194 q=-0.0 size=N/A time=00:05:45.47 bitrate=N/A speed=8.07x    frame= 8381 fps=194 q=-0.0 size=N/A time=00:05:49.55 bitrate=N/A speed=8.07x    frame= 8478 fps=193 q=-0.0 size=N/A time=00:05:53.60 bitrate=N/A speed=8.07x    frame= 8581 fps=193 q=-0.0 size=N/A time=00:05:57.89 bitrate=N/A speed=8.07x    frame= 8679 fps=193 q=-0.0 size=N/A time=00:06:01.98 bitrate=N/A speed=8.07x    frame= 8774 fps=193 q=-0.0 size=N/A time=00:06:05.94 bitrate=N/A speed=8.07x    frame= 8877 fps=193 q=-0.0 size=N/A time=00:06:10.24 bitrate=N/A speed=8.07x    frame= 8966 fps=193 q=-0.0 size=N/A time=00:06:13.95 bitrate=N/A speed=8.06x    frame= 9077 fps=193 q=-0.0 size=N/A time=00:06:18.58 bitrate=N/A speed=8.07x    frame= 9175 fps=193 q=-0.0 size=N/A time=00:06:22.67 bitrate=N/A speed=8.07x    frame= 9276 fps=193 q=-0.0 size=N/A time=00:06:26.88 bitrate=N/A speed=8.07x    frame= 9363 fps=193 q=-0.0 size=N/A time=00:06:30.51 bitrate=N/A speed=8.06x    frame= 9474 fps=193 q=-0.0 size=N/A time=00:06:35.14 bitrate=N/A speed=8.07x    frame= 9575 fps=193 q=-0.0 size=N/A time=00:06:39.35 bitrate=N/A speed=8.07x    frame= 9677 fps=193 q=-0.0 size=N/A time=00:06:43.61 bitrate=N/A speed=8.07x    frame= 9777 fps=193 q=-0.0 size=N/A time=00:06:47.78 bitrate=N/A speed=8.07x    frame= 9875 fps=193 q=-0.0 size=N/A time=00:06:51.86 bitrate=N/A speed=8.07x    frame= 9975 fps=193 q=-0.0 size=N/A time=00:06:56.04 bitrate=N/A speed=8.07x    frame=10071 fps=193 q=-0.0 size=N/A time=00:07:00.04 bitrate=N/A speed=8.06x    frame=10171 fps=193 q=-0.0 size=N/A time=00:07:04.21 bitrate=N/A speed=8.07x    frame=10273 fps=193 q=-0.0 size=N/A time=00:07:08.46 bitrate=N/A speed=8.07x    frame=10376 fps=193 q=-0.0 size=N/A time=00:07:12.76 bitrate=N/A speed=8.07x    frame=10474 fps=193 q=-0.0 size=N/A time=00:07:16.85 bitrate=N/A speed=8.07x    frame=10572 fps=193 q=-0.0 size=N/A time=00:07:20.94 bitrate=N/A speed=8.07x    frame=10672 fps=193 q=-0.0 size=N/A time=00:07:25.11 bitrate=N/A speed=8.07x    frame=10774 fps=193 q=-0.0 size=N/A time=00:07:29.36 bitrate=N/A speed=8.07x    frame=10868 fps=193 q=-0.0 size=N/A time=00:07:33.28 bitrate=N/A speed=8.06x    frame=10973 fps=193 q=-0.0 size=N/A time=00:07:37.66 bitrate=N/A speed=8.07x    frame=11072 fps=193 q=-0.0 size=N/A time=00:07:41.79 bitrate=N/A speed=8.07x    frame=11179 fps=194 q=-0.0 size=N/A time=00:07:46.25 bitrate=N/A speed=8.07x    frame=11275 fps=194 q=-0.0 size=N/A time=00:07:50.26 bitrate=N/A speed=8.07x    frame=11380 fps=194 q=-0.0 size=N/A time=00:07:54.64 bitrate=N/A speed=8.07x    frame=11480 fps=194 q=-0.0 size=N/A time=00:07:58.81 bitrate=N/A speed=8.08x    frame=11583 fps=194 q=-0.0 size=N/A time=00:08:03.10 bitrate=N/A speed=8.08x    frame=11681 fps=194 q=-0.0 size=N/A time=00:08:07.19 bitrate=N/A speed=8.08x    frame=11785 fps=194 q=-0.0 size=N/A time=00:08:11.53 bitrate=N/A speed=8.08x    frame=11888 fps=194 q=-0.0 size=N/A time=00:08:15.82 bitrate=N/A speed=8.08x    frame=11988 fps=194 q=-0.0 size=N/A time=00:08:19.99 bitrate=N/A speed=8.08x    frame=12088 fps=194 q=-0.0 size=N/A time=00:08:24.17 bitrate=N/A speed=8.08x    frame=12187 fps=194 q=-0.0 size=N/A time=00:08:28.29 bitrate=N/A speed=8.08x    frame=12290 fps=194 q=-0.0 size=N/A time=00:08:32.59 bitrate=N/A speed=8.08x    frame=12391 fps=194 q=-0.0 size=N/A time=00:08:36.80 bitrate=N/A speed=8.08x    frame=12490 fps=194 q=-0.0 size=N/A time=00:08:40.93 bitrate=N/A speed=8.08x    frame=12589 fps=194 q=-0.0 size=N/A time=00:08:45.06 bitrate=N/A speed=8.08x    frame=12692 fps=194 q=-0.0 size=N/A time=00:08:49.36 bitrate=N/A speed=8.08x    frame=12797 fps=194 q=-0.0 size=N/A time=00:08:53.74 bitrate=N/A speed=8.09x    frame=12898 fps=194 q=-0.0 size=N/A time=00:08:57.95 bitrate=N/A speed=8.09x    frame=12998 fps=194 q=-0.0 size=N/A time=00:09:02.12 bitrate=N/A speed=8.09x    frame=13101 fps=194 q=-0.0 size=N/A time=00:09:06.42 bitrate=N/A speed=8.09x    frame=13189 fps=194 q=-0.0 size=N/A time=00:09:10.09 bitrate=N/A speed=8.08x    frame=13299 fps=194 q=-0.0 size=N/A time=00:09:14.67 bitrate=N/A speed=8.09x    frame=13393 fps=194 q=-0.0 size=N/A time=00:09:18.59 bitrate=N/A speed=8.08x    frame=13495 fps=194 q=-0.0 size=N/A time=00:09:22.85 bitrate=N/A speed=8.08x    frame=13606 fps=194 q=-0.0 size=N/A time=00:09:27.48 bitrate=N/A speed=8.09x    frame=13708 fps=194 q=-0.0 size=N/A time=00:09:31.73 bitrate=N/A speed=8.09x    frame=13807 fps=194 q=-0.0 size=N/A time=00:09:35.86 bitrate=N/A speed=8.09x    frame=13912 fps=194 q=-0.0 size=N/A time=00:09:40.24 bitrate=N/A speed=8.09x    frame=14003 fps=194 q=-0.0 size=N/A time=00:09:44.04 bitrate=N/A speed=8.09x    frame=14115 fps=194 q=-0.0 size=N/A time=00:09:48.71 bitrate=N/A speed= 8.1x    frame=14220 fps=194 q=-0.0 size=N/A time=00:09:53.09 bitrate=N/A speed= 8.1x    frame=14320 fps=194 q=-0.0 size=N/A time=00:09:57.26 bitrate=N/A speed= 8.1x    frame=14420 fps=194 q=-0.0 size=N/A time=00:10:01.43 bitrate=N/A speed= 8.1x    frame=14521 fps=194 q=-0.0 size=N/A time=00:10:05.64 bitrate=N/A speed= 8.1x    frame=14619 fps=194 q=-0.0 size=N/A time=00:10:09.73 bitrate=N/A speed= 8.1x    frame=14723 fps=194 q=-0.0 size=N/A time=00:10:14.07 bitrate=N/A speed= 8.1x    frame=14822 fps=194 q=-0.0 size=N/A time=00:10:18.20 bitrate=N/A speed= 8.1x    frame=14925 fps=194 q=-0.0 size=N/A time=00:10:22.49 bitrate=N/A speed= 8.1x    frame=15023 fps=194 q=-0.0 size=N/A time=00:10:26.58 bitrate=N/A speed= 8.1x    frame=15117 fps=194 q=-0.0 size=N/A time=00:10:30.50 bitrate=N/A speed= 8.1x    frame=15225 fps=194 q=-0.0 size=N/A time=00:10:35.00 bitrate=N/A speed= 8.1x    frame=15328 fps=194 q=-0.0 size=N/A time=00:10:39.30 bitrate=N/A speed= 8.1x    frame=15429 fps=194 q=-0.0 size=N/A time=00:10:43.51 bitrate=N/A speed= 8.1x    frame=15525 fps=194 q=-0.0 size=N/A time=00:10:47.52 bitrate=N/A speed= 8.1x    frame=15624 fps=194 q=-0.0 size=N/A time=00:10:51.65 bitrate=N/A speed= 8.1x    frame=15732 fps=194 q=-0.0 size=N/A time=00:10:56.15 bitrate=N/A speed= 8.1x    frame=15835 fps=194 q=-0.0 size=N/A time=00:11:00.45 bitrate=N/A speed= 8.1x    frame=15934 fps=194 q=-0.0 size=N/A time=00:11:04.58 bitrate=N/A speed= 8.1x    frame=16035 fps=194 q=-0.0 size=N/A time=00:11:08.79 bitrate=N/A speed=8.11x    frame=16135 fps=194 q=-0.0 size=N/A time=00:11:12.96 bitrate=N/A speed= 8.1x    frame=16234 fps=194 q=-0.0 size=N/A time=00:11:17.09 bitrate=N/A speed= 8.1x    frame=16335 fps=194 q=-0.0 size=N/A time=00:11:21.30 bitrate=N/A speed= 8.1x    frame=16435 fps=194 q=-0.0 size=N/A time=00:11:25.47 bitrate=N/A speed=8.11x    frame=16526 fps=194 q=-0.0 size=N/A time=00:11:29.27 bitrate=N/A speed= 8.1x    frame=16636 fps=194 q=-0.0 size=N/A time=00:11:33.85 bitrate=N/A speed= 8.1x    frame=16732 fps=194 q=-0.0 size=N/A time=00:11:37.86 bitrate=N/A speed= 8.1x    frame=16831 fps=194 q=-0.0 size=N/A time=00:11:41.99 bitrate=N/A speed= 8.1x    frame=16942 fps=194 q=-0.0 size=N/A time=00:11:46.62 bitrate=N/A speed=8.11x    frame=17042 fps=194 q=-0.0 size=N/A time=00:11:50.79 bitrate=N/A speed=8.11x    frame=17130 fps=194 q=-0.0 size=N/A time=00:11:54.46 bitrate=N/A speed= 8.1x    frame=17245 fps=194 q=-0.0 size=N/A time=00:11:59.26 bitrate=N/A speed=8.11x    frame=17342 fps=194 q=-0.0 size=N/A time=00:12:03.30 bitrate=N/A speed=8.11x    frame=17445 fps=194 q=-0.0 size=N/A time=00:12:07.60 bitrate=N/A speed=8.11x    frame=17543 fps=194 q=-0.0 size=N/A time=00:12:11.68 bitrate=N/A speed=8.11x    frame=17634 fps=194 q=-0.0 size=N/A time=00:12:15.48 bitrate=N/A speed= 8.1x    frame=17736 fps=194 q=-0.0 size=N/A time=00:12:19.73 bitrate=N/A speed= 8.1x    frame=17842 fps=194 q=-0.0 size=N/A time=00:12:24.16 bitrate=N/A speed=8.11x    frame=17941 fps=194 q=-0.0 size=N/A time=00:12:28.28 bitrate=N/A speed=8.11x    frame=18043 fps=194 q=-0.0 size=N/A time=00:12:32.54 bitrate=N/A speed=8.11x    frame=18142 fps=194 q=-0.0 size=N/A time=00:12:36.67 bitrate=N/A speed=8.11x    frame=18237 fps=194 q=-0.0 size=N/A time=00:12:40.63 bitrate=N/A speed= 8.1x    frame=18343 fps=194 q=-0.0 size=N/A time=00:12:45.05 bitrate=N/A speed=8.11x    frame=18445 fps=194 q=-0.0 size=N/A time=00:12:49.31 bitrate=N/A speed=8.11x    frame=18540 fps=194 q=-0.0 size=N/A time=00:12:53.27 bitrate=N/A speed=8.11x    frame=18644 fps=194 q=-0.0 size=N/A time=00:12:57.61 bitrate=N/A speed=8.11x    frame=18739 fps=194 q=-0.0 size=N/A time=00:13:01.57 bitrate=N/A speed= 8.1x    frame=18844 fps=194 q=-0.0 size=N/A time=00:13:05.95 bitrate=N/A speed=8.11x    frame=18943 fps=194 q=-0.0 size=N/A time=00:13:10.08 bitrate=N/A speed=8.11x    frame=19045 fps=194 q=-0.0 size=N/A time=00:13:14.33 bitrate=N/A speed=8.11x    frame=19146 fps=194 q=-0.0 size=N/A time=00:13:18.54 bitrate=N/A speed=8.11x    frame=19238 fps=194 q=-0.0 size=N/A time=00:13:22.38 bitrate=N/A speed= 8.1x    frame=19346 fps=194 q=-0.0 size=N/A time=00:13:26.88 bitrate=N/A speed=8.11x    frame=19445 fps=194 q=-0.0 size=N/A time=00:13:31.01 bitrate=N/A speed=8.11x    frame=19546 fps=194 q=-0.0 size=N/A time=00:13:35.23 bitrate=N/A speed=8.11x    frame=19642 fps=194 q=-0.0 size=N/A time=00:13:39.23 bitrate=N/A speed= 8.1x    frame=19740 fps=194 q=-0.0 size=N/A time=00:13:43.32 bitrate=N/A speed= 8.1x    frame=19835 fps=194 q=-0.0 size=N/A time=00:13:47.28 bitrate=N/A speed= 8.1x    frame=19941 fps=194 q=-0.0 size=N/A time=00:13:51.70 bitrate=N/A speed= 8.1x    frame=20043 fps=194 q=-0.0 size=N/A time=00:13:55.96 bitrate=N/A speed=8.11x    frame=20143 fps=194 q=-0.0 size=N/A time=00:14:00.13 bitrate=N/A speed=8.11x    frame=20245 fps=194 q=-0.0 size=N/A time=00:14:04.38 bitrate=N/A speed=8.11x    frame=20343 fps=194 q=-0.0 size=N/A time=00:14:08.47 bitrate=N/A speed= 8.1x    frame=20443 fps=194 q=-0.0 size=N/A time=00:14:12.64 bitrate=N/A speed= 8.1x    frame=20541 fps=194 q=-0.0 size=N/A time=00:14:16.73 bitrate=N/A speed= 8.1x    frame=20635 fps=194 q=-0.0 size=N/A time=00:14:20.65 bitrate=N/A speed= 8.1x    frame=20740 fps=194 q=-0.0 size=N/A time=00:14:25.03 bitrate=N/A speed= 8.1x    frame=20839 fps=194 q=-0.0 size=N/A time=00:14:29.15 bitrate=N/A speed= 8.1x    frame=20936 fps=194 q=-0.0 size=N/A time=00:14:33.20 bitrate=N/A speed= 8.1x    frame=21039 fps=194 q=-0.0 size=N/A time=00:14:37.50 bitrate=N/A speed= 8.1x    frame=21125 fps=194 q=-0.0 size=N/A time=00:14:41.08 bitrate=N/A speed= 8.1x    frame=21240 fps=194 q=-0.0 size=N/A time=00:14:45.88 bitrate=N/A speed= 8.1x    frame=21343 fps=194 q=-0.0 size=N/A time=00:14:50.18 bitrate=N/A speed= 8.1x    frame=21442 fps=194 q=-0.0 size=N/A time=00:14:54.31 bitrate=N/A speed= 8.1x    frame=21542 fps=194 q=-0.0 size=N/A time=00:14:58.48 bitrate=N/A speed= 8.1x    frame=21641 fps=194 q=-0.0 size=N/A time=00:15:02.61 bitrate=N/A speed= 8.1x    frame=21744 fps=194 q=-0.0 size=N/A time=00:15:06.90 bitrate=N/A speed= 8.1x    frame=21837 fps=194 q=-0.0 size=N/A time=00:15:10.78 bitrate=N/A speed= 8.1x    frame=21942 fps=194 q=-0.0 size=N/A time=00:15:15.16 bitrate=N/A speed= 8.1x    frame=22043 fps=194 q=-0.0 size=N/A time=00:15:19.37 bitrate=N/A speed= 8.1x    frame=22139 fps=194 q=-0.0 size=N/A time=00:15:23.38 bitrate=N/A speed= 8.1x    frame=22246 fps=194 q=-0.0 size=N/A time=00:15:27.84 bitrate=N/A speed= 8.1x    frame=22346 fps=194 q=-0.0 size=N/A time=00:15:32.01 bitrate=N/A speed= 8.1x    frame=22444 fps=194 q=-0.0 size=N/A time=00:15:36.10 bitrate=N/A speed= 8.1x    frame=22548 fps=194 q=-0.0 size=N/A time=00:15:40.43 bitrate=N/A speed= 8.1x    frame=22647 fps=194 q=-0.0 size=N/A time=00:15:44.56 bitrate=N/A speed= 8.1x    frame=22747 fps=194 q=-0.0 size=N/A time=00:15:48.73 bitrate=N/A speed= 8.1x    frame=22847 fps=194 q=-0.0 size=N/A time=00:15:52.91 bitrate=N/A speed= 8.1x    frame=22946 fps=194 q=-0.0 size=N/A time=00:15:57.03 bitrate=N/A speed= 8.1x    frame=23045 fps=194 q=-0.0 size=N/A time=00:16:01.16 bitrate=N/A speed= 8.1x    frame=23139 fps=194 q=-0.0 size=N/A time=00:16:05.08 bitrate=N/A speed= 8.1x    frame=23246 fps=194 q=-0.0 size=N/A time=00:16:09.55 bitrate=N/A speed= 8.1x    frame=23344 fps=194 q=-0.0 size=N/A time=00:16:13.63 bitrate=N/A speed= 8.1x    frame=23444 fps=194 q=-0.0 size=N/A time=00:16:17.81 bitrate=N/A speed= 8.1x    frame=23547 fps=194 q=-0.0 size=N/A time=00:16:22.10 bitrate=N/A speed= 8.1x    frame=23650 fps=194 q=-0.0 size=N/A time=00:16:26.40 bitrate=N/A speed= 8.1x    frame=23751 fps=194 q=-0.0 size=N/A time=00:16:30.61 bitrate=N/A speed=8.11x    frame=23842 fps=194 q=-0.0 size=N/A time=00:16:34.41 bitrate=N/A speed= 8.1x    frame=23952 fps=194 q=-0.0 size=N/A time=00:16:38.99 bitrate=N/A speed=8.11x    frame=24049 fps=194 q=-0.0 size=N/A time=00:16:43.04 bitrate=N/A speed= 8.1x    frame=24153 fps=194 q=-0.0 size=N/A time=00:16:47.38 bitrate=N/A speed=8.11x    frame=24250 fps=194 q=-0.0 size=N/A time=00:16:51.42 bitrate=N/A speed= 8.1x    frame=24353 fps=194 q=-0.0 size=N/A time=00:16:55.72 bitrate=N/A speed= 8.1x    frame=24450 fps=194 q=-0.0 size=N/A time=00:16:59.76 bitrate=N/A speed= 8.1x    frame=24547 fps=194 q=-0.0 size=N/A time=00:17:03.81 bitrate=N/A speed= 8.1x    frame=24646 fps=194 q=-0.0 size=N/A time=00:17:07.94 bitrate=N/A speed= 8.1x    frame=24739 fps=194 q=-0.0 size=N/A time=00:17:11.82 bitrate=N/A speed= 8.1x    frame=24849 fps=194 q=-0.0 size=N/A time=00:17:16.41 bitrate=N/A speed= 8.1x    frame=24945 fps=194 q=-0.0 size=N/A time=00:17:20.41 bitrate=N/A speed= 8.1x    frame=25049 fps=194 q=-0.0 size=N/A time=00:17:24.75 bitrate=N/A speed= 8.1x    frame=25152 fps=194 q=-0.0 size=N/A time=00:17:29.04 bitrate=N/A speed= 8.1x    frame=25248 fps=194 q=-0.0 size=N/A time=00:17:33.05 bitrate=N/A speed= 8.1x    frame=25344 fps=194 q=-0.0 size=N/A time=00:17:37.05 bitrate=N/A speed= 8.1x    frame=25446 fps=194 q=-0.0 size=N/A time=00:17:41.31 bitrate=N/A speed= 8.1x    frame=25551 fps=194 q=-0.0 size=N/A time=00:17:45.68 bitrate=N/A speed= 8.1x    frame=25646 fps=194 q=-0.0 size=N/A time=00:17:49.65 bitrate=N/A speed= 8.1x    frame=25749 fps=194 q=-0.0 size=N/A time=00:17:53.94 bitrate=N/A speed= 8.1x    frame=25850 fps=194 q=-0.0 size=N/A time=00:17:58.16 bitrate=N/A speed= 8.1x    frame=25952 fps=194 q=-0.0 size=N/A time=00:18:02.41 bitrate=N/A speed= 8.1x    frame=26052 fps=194 q=-0.0 size=N/A time=00:18:06.58 bitrate=N/A speed= 8.1x    frame=26147 fps=194 q=-0.0 size=N/A time=00:18:10.54 bitrate=N/A speed= 8.1x    frame=26243 fps=194 q=-0.0 size=N/A time=00:18:14.55 bitrate=N/A speed= 8.1x    frame=26348 fps=194 q=-0.0 size=N/A time=00:18:18.93 bitrate=N/A speed= 8.1x    frame=26450 fps=194 q=-0.0 size=N/A time=00:18:23.18 bitrate=N/A speed= 8.1x    frame=26549 fps=194 q=-0.0 size=N/A time=00:18:27.31 bitrate=N/A speed= 8.1x    frame=26650 fps=194 q=-0.0 size=N/A time=00:18:31.52 bitrate=N/A speed= 8.1x    frame=26746 fps=194 q=-0.0 size=N/A time=00:18:35.53 bitrate=N/A speed= 8.1x    frame=26851 fps=194 q=-0.0 size=N/A time=00:18:39.91 bitrate=N/A speed= 8.1x    frame=26950 fps=194 q=-0.0 size=N/A time=00:18:44.03 bitrate=N/A speed= 8.1x    frame=27049 fps=194 q=-0.0 size=N/A time=00:18:48.16 bitrate=N/A speed= 8.1x    frame=27152 fps=194 q=-0.0 size=N/A time=00:18:52.46 bitrate=N/A speed= 8.1x    frame=27247 fps=194 q=-0.0 size=N/A time=00:18:56.42 bitrate=N/A speed= 8.1x    frame=27354 fps=194 q=-0.0 size=N/A time=00:19:00.88 bitrate=N/A speed= 8.1x    frame=27446 fps=194 q=-0.0 size=N/A time=00:19:04.72 bitrate=N/A speed= 8.1x    frame=27546 fps=194 q=-0.0 size=N/A time=00:19:08.89 bitrate=N/A speed= 8.1x    frame=27651 fps=194 q=-0.0 size=N/A time=00:19:13.27 bitrate=N/A speed= 8.1x    frame=27748 fps=194 q=-0.0 size=N/A time=00:19:17.32 bitrate=N/A speed= 8.1x    frame=27850 fps=194 q=-0.0 size=N/A time=00:19:21.57 bitrate=N/A speed= 8.1x    frame=27950 fps=194 q=-0.0 size=N/A time=00:19:25.74 bitrate=N/A speed= 8.1x    frame=28045 fps=194 q=-0.0 size=N/A time=00:19:29.71 bitrate=N/A speed= 8.1x    frame=28149 fps=194 q=-0.0 size=N/A time=00:19:34.04 bitrate=N/A speed= 8.1x    frame=28246 fps=194 q=-0.0 size=N/A time=00:19:38.09 bitrate=N/A speed= 8.1x    frame=28348 fps=194 q=-0.0 size=N/A time=00:19:42.34 bitrate=N/A speed= 8.1x    frame=28447 fps=194 q=-0.0 size=N/A time=00:19:46.47 bitrate=N/A speed= 8.1x    frame=28548 fps=194 q=-0.0 size=N/A time=00:19:50.68 bitrate=N/A speed= 8.1x    frame=28647 fps=194 q=-0.0 size=N/A time=00:19:54.81 bitrate=N/A speed= 8.1x    frame=28747 fps=194 q=-0.0 size=N/A time=00:19:58.98 bitrate=N/A speed= 8.1x    frame=28850 fps=194 q=-0.0 size=N/A time=00:20:03.28 bitrate=N/A speed= 8.1x    frame=28950 fps=194 q=-0.0 size=N/A time=00:20:07.45 bitrate=N/A speed= 8.1x    frame=29050 fps=194 q=-0.0 size=N/A time=00:20:11.62 bitrate=N/A speed= 8.1x    frame=29150 fps=194 q=-0.0 size=N/A time=00:20:15.79 bitrate=N/A speed= 8.1x    frame=29252 fps=194 q=-0.0 size=N/A time=00:20:20.05 bitrate=N/A speed= 8.1x    frame=29354 fps=194 q=-0.0 size=N/A time=00:20:24.30 bitrate=N/A speed= 8.1x    frame=29449 fps=194 q=-0.0 size=N/A time=00:20:28.26 bitrate=N/A speed= 8.1x    frame=29556 fps=194 q=-0.0 size=N/A time=00:20:32.73 bitrate=N/A speed= 8.1x    frame=29660 fps=194 q=-0.0 size=N/A time=00:20:37.06 bitrate=N/A speed= 8.1x    frame=29755 fps=194 q=-0.0 size=N/A time=00:20:41.03 bitrate=N/A speed= 8.1x    frame=29847 fps=194 q=-0.0 size=N/A time=00:20:44.86 bitrate=N/A speed= 8.1x    frame=29948 fps=194 q=-0.0 size=N/A time=00:20:49.08 bitrate=N/A speed= 8.1x    frame=30049 fps=194 q=-0.0 size=N/A time=00:20:53.29 bitrate=N/A speed= 8.1x    frame=30149 fps=194 q=-0.0 size=N/A time=00:20:57.46 bitrate=N/A speed= 8.1x    frame=30254 fps=194 q=-0.0 size=N/A time=00:21:01.84 bitrate=N/A speed= 8.1x    frame=30354 fps=194 q=-0.0 size=N/A time=00:21:06.01 bitrate=N/A speed= 8.1x    frame=30459 fps=194 q=-0.0 size=N/A time=00:21:10.39 bitrate=N/A speed= 8.1x    frame=30559 fps=194 q=-0.0 size=N/A time=00:21:14.56 bitrate=N/A speed= 8.1x    frame=30649 fps=194 q=-0.0 size=N/A time=00:21:18.31 bitrate=N/A speed= 8.1x    frame=30753 fps=194 q=-0.0 size=N/A time=00:21:22.65 bitrate=N/A speed= 8.1x    frame=30850 fps=194 q=-0.0 size=N/A time=00:21:26.70 bitrate=N/A speed= 8.1x    frame=30944 fps=194 q=-0.0 size=N/A time=00:21:30.62 bitrate=N/A speed= 8.1x    frame=31039 fps=194 q=-0.0 size=N/A time=00:21:34.58 bitrate=N/A speed= 8.1x    frame=31123 fps=194 q=-0.0 size=N/A time=00:21:38.08 bitrate=N/A speed=8.09x    frame=31226 fps=194 q=-0.0 size=N/A time=00:21:42.38 bitrate=N/A speed=8.09x    frame=31319 fps=194 q=-0.0 size=N/A time=00:21:46.26 bitrate=N/A speed=8.09x    frame=31414 fps=194 q=-0.0 size=N/A time=00:21:50.22 bitrate=N/A speed=8.09x    frame=31503 fps=194 q=-0.0 size=N/A time=00:21:53.93 bitrate=N/A speed=8.09x    frame=31610 fps=194 q=-0.0 size=N/A time=00:21:58.40 bitrate=N/A speed=8.09x    frame=31700 fps=194 q=-0.0 size=N/A time=00:22:02.15 bitrate=N/A speed=8.09x    frame=31803 fps=194 q=-0.0 size=N/A time=00:22:06.45 bitrate=N/A speed=8.09x    frame=31896 fps=194 q=-0.0 size=N/A time=00:22:10.32 bitrate=N/A speed=8.09x    frame=31998 fps=194 q=-0.0 size=N/A time=00:22:14.58 bitrate=N/A speed=8.09x    frame=32094 fps=194 q=-0.0 size=N/A time=00:22:18.58 bitrate=N/A speed=8.09x    frame=32190 fps=194 q=-0.0 size=N/A time=00:22:22.59 bitrate=N/A speed=8.08x    frame=32292 fps=194 q=-0.0 size=N/A time=00:22:26.84 bitrate=N/A speed=8.09x    frame=32387 fps=194 q=-0.0 size=N/A time=00:22:30.80 bitrate=N/A speed=8.08x    frame=32484 fps=194 q=-0.0 size=N/A time=00:22:34.85 bitrate=N/A speed=8.08x    frame=32570 fps=194 q=-0.0 size=N/A time=00:22:38.44 bitrate=N/A speed=8.08x    frame=32678 fps=194 q=-0.0 size=N/A time=00:22:42.94 bitrate=N/A speed=8.08x    frame=32777 fps=194 q=-0.0 size=N/A time=00:22:47.07 bitrate=N/A speed=8.08x    frame=32872 fps=194 q=-0.0 size=N/A time=00:22:51.03 bitrate=N/A speed=8.08x    frame=32977 fps=194 q=-0.0 size=N/A time=00:22:55.41 bitrate=N/A speed=8.08x    frame=33081 fps=194 q=-0.0 size=N/A time=00:22:59.75 bitrate=N/A speed=8.08x    frame=33180 fps=194 q=-0.0 size=N/A time=00:23:03.88 bitrate=N/A speed=8.08x    frame=33281 fps=194 q=-0.0 size=N/A time=00:23:08.09 bitrate=N/A speed=8.08x    frame=33380 fps=194 q=-0.0 size=N/A time=00:23:12.22 bitrate=N/A speed=8.08x    frame=33479 fps=194 q=-0.0 size=N/A time=00:23:16.35 bitrate=N/A speed=8.08x    frame=33574 fps=194 q=-0.0 size=N/A time=00:23:20.31 bitrate=N/A speed=8.08x    frame=33667 fps=194 q=-0.0 size=N/A time=00:23:24.19 bitrate=N/A speed=8.08x    frame=33773 fps=194 q=-0.0 size=N/A time=00:23:28.61 bitrate=N/A speed=8.08x    frame=33877 fps=194 q=-0.0 size=N/A time=00:23:32.95 bitrate=N/A speed=8.08x    frame=33974 fps=194 q=-0.0 size=N/A time=00:23:36.99 bitrate=N/A speed=8.08x    [Parsed_psnr_10 @ 0000024b41a0c000] PSNR y:45.021420 u:49.858821 v:49.868203 average:46.122919 min:38.587009 max:inf
[out#0/null @ 0000024b3d3c3b80] video:14639KiB audio:266440KiB subtitle:0KiB other streams:0KiB global headers:0KiB muxing overhead: unknown
frame=34069 fps=194 q=-0.0 Lsize=N/A time=00:23:40.96 bitrate=N/A speed=8.08x    
